<svg xmlns="http://www.w3.org/2000/svg" viewBox="0 0 108 108" fill="none">
  <!-- Shield shape filled with teal -->
  <path d="M54 18 L28 32 L28 56 C28 72 39 84 54 90 C69 84 80 72 80 56 L80 32 Z"
        fill="#2dd4bf" opacity="0.15"/>
  <path d="M54 18 L28 32 L28 56 C28 72 39 84 54 90 C69 84 80 72 80 56 L80 32 Z"
        fill="none" stroke="#2dd4bf" stroke-width="3.5"/>
  <!-- Pulse/heartbeat line -->
  <path d="M35 56 L44 56 L48 44 L54 68 L60 36 L66 62 L69 52 L74 52"
        fill="none" stroke="#2dd4bf" stroke-width="3.5" stroke-linecap="round" stroke-linejoin="round"/>
  <!-- Small dot accents -->
  <circle cx="35" cy="56" r="2" fill="#2dd4bf"/>
  <circle cx="74" cy="52" r="2" fill="#2dd4bf"/>
</svg>
